<svg xmlns="http://www.w3.org/2000/svg" width="840" height="270" viewBox="0 0 840 270" role="img" aria-labelledby="title">
<title id="title">TRUPALIX9 on GitHub: 1,692 contributions in the last year</title>
<rect x="0.5" y="0.5" width="839" height="269" rx="12" fill="#FFFFFF" stroke="#D0D7DE"/>
<g font-family="-apple-system, BlinkMacSystemFont, 'Segoe UI', Helvetica, Arial, sans-serif">
<text x="32" y="78" font-size="52" font-weight="700" fill="#16A34A">1,692</text>
<text x="32" y="106" font-size="17" fill="#59636E">contributions in the last year</text>
<text x="32" y="160" font-size="28" font-weight="700" fill="#1F2328">560</text>
<text x="32" y="182" font-size="14" fill="#59636E">Commits</text>
<text x="232" y="160" font-size="28" font-weight="700" fill="#1F2328">56</text>
<text x="232" y="182" font-size="14" fill="#59636E">Pull requests</text>
<text x="32" y="222" font-size="28" font-weight="700" fill="#1F2328">1,069</text>
<text x="32" y="244" font-size="14" fill="#59636E">Private contributions</text>
<text x="232" y="222" font-size="28" font-weight="700" fill="#1F2328">15</text>
<text x="232" y="244" font-size="14" fill="#59636E">Public repos</text>
<line x1="440" y1="28" x2="440" y2="242" stroke="#D0D7DE"/>
<text x="470" y="46" font-size="15" font-weight="600" fill="#1F2328">Top languages · public repos</text>
<rect x="470" y="60" width="338" height="10" rx="5" fill="#EAEEF2"/>
<clipPath id="bar"><rect x="470" y="60" width="338" height="10" rx="5"/></clipPath><g clip-path="url(#bar)">
<rect x="470.0" y="60" width="177.3" height="10" fill="#3178c6"/>
<rect x="646.8" y="60" width="60.6" height="10" fill="#00B4AB"/>
<rect x="706.9" y="60" width="52.6" height="10" fill="#e34c26"/>
<rect x="759.0" y="60" width="19.0" height="10" fill="#7355dd"/>
<rect x="777.5" y="60" width="14.4" height="10" fill="#663399"/>
<rect x="791.3" y="60" width="6.6" height="10" fill="#f1e05a"/>
</g>
<circle cx="476" cy="95" r="6" fill="#3178c6"/>
<text x="490" y="100" font-size="15" fill="#1F2328">TypeScript <tspan fill="#59636E">52.3%</tspan></text>
<circle cx="651" cy="95" r="6" fill="#00B4AB"/>
<text x="665" y="100" font-size="15" fill="#1F2328">Dart <tspan fill="#59636E">17.8%</tspan></text>
<circle cx="476" cy="125" r="6" fill="#e34c26"/>
<text x="490" y="130" font-size="15" fill="#1F2328">HTML <tspan fill="#59636E">15.4%</tspan></text>
<circle cx="651" cy="125" r="6" fill="#7355dd"/>
<text x="665" y="130" font-size="15" fill="#1F2328">C# <tspan fill="#59636E">5.5%</tspan></text>
<circle cx="476" cy="155" r="6" fill="#663399"/>
<text x="490" y="160" font-size="15" fill="#1F2328">CSS <tspan fill="#59636E">4.1%</tspan></text>
<circle cx="651" cy="155" r="6" fill="#f1e05a"/>
<text x="665" y="160" font-size="15" fill="#1F2328">JavaScript <tspan fill="#59636E">1.8%</tspan></text>
<text x="470" y="244" font-size="12" fill="#59636E">Updated daily from the GitHub API</text>
</g></svg>
